{
    "asset" : {
        "generator" : "Khronos glTF Blender I/O v1.6.16",
        "version" : "2.0"
    },
    "scene" : 0,
    "scenes" : [
        {
            "name" : "Scene",
            "nodes" : [
                6
            ]
        }
    ],
    "nodes" : [
        {
            "mesh" : 0,
            "name" : "defaultMaterial"
        },
        {
            "children" : [
                0
            ],
            "name" : "SM_Book_01"
        },
        {
            "mesh" : 1,
            "name" : "defaultMaterial.001"
        },
        {
            "children" : [
                2
            ],
            "name" : "SM_Book_01.001"
        },
        {
            "children" : [
                1,
                3
            ],
            "name" : "Collada visual scene group",
            "rotation" : [
                0.7071068286895752,
                0,
                0,
                0.7071068286895752
            ]
        },
        {
            "children" : [
                4
            ],
            "name" : "RootNode (model correction matrix)"
        },
        {
            "children" : [
                5
            ],
            "name" : "RootNode (gltf orientation matrix)",
            "rotation" : [
                -0.00593985803425312,
                -0.9915322661399841,
                -0.12967634201049805,
                0.003561420366168022
            ]
        }
    ],
    "materials" : [
        {
            "doubleSided" : true,
            "name" : "M_Pages",
            "normalTexture" : {
                "index" : 0
            },
            "occlusionTexture" : {
                "index" : 1
            },
            "pbrMetallicRoughness" : {
                "baseColorTexture" : {
                    "index" : 2
                },
                "metallicRoughnessTexture" : {
                    "index" : 1
                }
            }
        },
        {
            "doubleSided" : true,
            "emissiveFactor" : [
                1,
                1,
                1
            ],
            "emissiveTexture" : {
                "index" : 3
            },
            "name" : "M_Cover",
            "normalTexture" : {
                "index" : 4
            },
            "occlusionTexture" : {
                "index" : 5
            },
            "pbrMetallicRoughness" : {
                "baseColorTexture" : {
                    "index" : 6
                },
                "metallicRoughnessTexture" : {
                    "index" : 5
                }
            }
        }
    ],
    "meshes" : [
        {
            "name" : "defaultMaterial",
            "primitives" : [
                {
                    "attributes" : {
                        "POSITION" : 0,
                        "NORMAL" : 1,
                        "TEXCOORD_0" : 2,
                        "COLOR_0" : 3
                    },
                    "indices" : 4,
                    "material" : 0
                }
            ]
        },
        {
            "name" : "defaultMaterial.001",
            "primitives" : [
                {
                    "attributes" : {
                        "POSITION" : 5,
                        "NORMAL" : 6,
                        "TEXCOORD_0" : 7,
                        "COLOR_0" : 8
                    },
                    "indices" : 9,
                    "material" : 1
                }
            ]
        }
    ],
    "textures" : [
        {
            "sampler" : 0,
            "source" : 0
        },
        {
            "sampler" : 0,
            "source" : 1
        },
        {
            "sampler" : 0,
            "source" : 2
        },
        {
            "sampler" : 0,
            "source" : 3
        },
        {
            "sampler" : 0,
            "source" : 4
        },
        {
            "sampler" : 0,
            "source" : 5
        },
        {
            "sampler" : 0,
            "source" : 6
        }
    ],
    "images" : [
        {
            "mimeType" : "image/jpeg",
            "name" : "M_Pages_normal",
            "uri" : "M_Pages_normal.jpg"
        },
        {
            "mimeType" : "image/png",
            "name" : "M_Pages_metallicRoughness",
            "uri" : "M_Pages_metallicRoughness.png"
        },
        {
            "mimeType" : "image/jpeg",
            "name" : "M_Pages_baseColor",
            "uri" : "M_Pages_baseColor.jpg"
        },
        {
            "mimeType" : "image/jpeg",
            "name" : "M_Cover_emissive",
            "uri" : "M_Cover_emissive.jpg"
        },
        {
            "mimeType" : "image/jpeg",
            "name" : "M_Cover_normal",
            "uri" : "M_Cover_normal.jpg"
        },
        {
            "mimeType" : "image/png",
            "name" : "M_Cover_metallicRoughness",
            "uri" : "M_Cover_metallicRoughness.png"
        },
        {
            "mimeType" : "image/jpeg",
            "name" : "M_Cover_baseColor",
            "uri" : "M_Cover_baseColor.jpg"
        }
    ],
    "accessors" : [
        {
            "bufferView" : 0,
            "componentType" : 5126,
            "count" : 280,
            "max" : [
                0.6593989729881287,
                0.11698900163173676,
                0.9731360077857971
            ],
            "min" : [
                -0.6305490136146545,
                -0.11698900163173676,
                -0.9725480079650879
            ],
            "type" : "VEC3"
        },
        {
            "bufferView" : 1,
            "componentType" : 5126,
            "count" : 280,
            "type" : "VEC3"
        },
        {
            "bufferView" : 2,
            "componentType" : 5126,
            "count" : 280,
            "type" : "VEC2"
        },
        {
            "bufferView" : 3,
            "componentType" : 5123,
            "count" : 280,
            "normalized" : true,
            "type" : "VEC4"
        },
        {
            "bufferView" : 4,
            "componentType" : 5123,
            "count" : 816,
            "type" : "SCALAR"
        },
        {
            "bufferView" : 5,
            "componentType" : 5126,
            "count" : 470,
            "max" : [
                0.7309030294418335,
                0.163783997297287,
                1
            ],
            "min" : [
                -0.7309020161628723,
                -0.163783997297287,
                -1
            ],
            "type" : "VEC3"
        },
        {
            "bufferView" : 6,
            "componentType" : 5126,
            "count" : 470,
            "type" : "VEC3"
        },
        {
            "bufferView" : 7,
            "componentType" : 5126,
            "count" : 470,
            "type" : "VEC2"
        },
        {
            "bufferView" : 8,
            "componentType" : 5123,
            "count" : 470,
            "normalized" : true,
            "type" : "VEC4"
        },
        {
            "bufferView" : 9,
            "componentType" : 5123,
            "count" : 2568,
            "type" : "SCALAR"
        }
    ],
    "bufferViews" : [
        {
            "buffer" : 0,
            "byteLength" : 3360,
            "byteOffset" : 0
        },
        {
            "buffer" : 0,
            "byteLength" : 3360,
            "byteOffset" : 3360
        },
        {
            "buffer" : 0,
            "byteLength" : 2240,
            "byteOffset" : 6720
        },
        {
            "buffer" : 0,
            "byteLength" : 2240,
            "byteOffset" : 8960
        },
        {
            "buffer" : 0,
            "byteLength" : 1632,
            "byteOffset" : 11200
        },
        {
            "buffer" : 0,
            "byteLength" : 5640,
            "byteOffset" : 12832
        },
        {
            "buffer" : 0,
            "byteLength" : 5640,
            "byteOffset" : 18472
        },
        {
            "buffer" : 0,
            "byteLength" : 3760,
            "byteOffset" : 24112
        },
        {
            "buffer" : 0,
            "byteLength" : 3760,
            "byteOffset" : 27872
        },
        {
            "buffer" : 0,
            "byteLength" : 5136,
            "byteOffset" : 31632
        }
    ],
    "samplers" : [
        {
            "magFilter" : 9729,
            "minFilter" : 9987
        }
    ],
    "buffers" : [
        {
            "byteLength" : 36768,
            "uri" : "scene3.bin"
        }
    ]
}
