{
  "accessors": [
    {
      "bufferView": 2,
      "componentType": 5126,
      "count": 65533,
      "max": [
        9.526668548583984,
        1.6880604028701782,
        45.9530143737793
      ],
      "min": [
        -10.307638168334961,
        -1.5345531702041626,
        16.42902183532715
      ],
      "type": "VEC3"
    },
    {
      "bufferView": 2,
      "byteOffset": 786396,
      "componentType": 5126,
      "count": 65533,
      "max": [
        0.9999999403953552,
        1.0,
        0.9999992847442627
      ],
      "min": [
        -0.9999995231628418,
        -0.9999992251396179,
        -0.9999992847442627
      ],
      "type": "VEC3"
    },
    {
      "bufferView": 1,
      "componentType": 5126,
      "count": 65533,
      "max": [
        0.9920868873596191,
        0.9921486973762512
      ],
      "min": [
        0.007848032750189304,
        0.007851362228393555
      ],
      "type": "VEC2"
    },
    {
      "bufferView": 0,
      "componentType": 5125,
      "count": 310302,
      "type": "SCALAR"
    },
    {
      "bufferView": 2,
      "byteOffset": 1572792,
      "componentType": 5126,
      "count": 7047,
      "max": [
        9.470974922180176,
        1.6908965110778809,
        45.88848876953125
      ],
      "min": [
        -10.251832008361816,
        -1.4748737812042236,
        16.568405151367188
      ],
      "type": "VEC3"
    },
    {
      "bufferView": 2,
      "byteOffset": 1657356,
      "componentType": 5126,
      "count": 7047,
      "max": [
        0.9997950196266174,
        0.9999998211860657,
        0.9998136162757874
      ],
      "min": [
        -0.9999228119850159,
        -0.9999955892562866,
        -0.9998087286949158
      ],
      "type": "VEC3"
    },
    {
      "bufferView": 1,
      "byteOffset": 524264,
      "componentType": 5126,
      "count": 7047,
      "max": [
        0.9921519756317139,
        0.9921486973762512
      ],
      "min": [
        0.007848032750189304,
        0.008003830909729004
      ],
      "type": "VEC2"
    },
    {
      "bufferView": 0,
      "byteOffset": 1241208,
      "componentType": 5125,
      "count": 12993,
      "type": "SCALAR"
    }
  ],
  "asset": {
    "extras": {
      "author": "Realf Heygate (https://sketchfab.com/realf_heygate)",
      "license": "CC-BY-4.0 (http://creativecommons.org/licenses/by/4.0/)",
      "source": "https://sketchfab.com/3d-models/render-solar-bird-c4440dc79d0a4afdb649de84ba8c76ca",
      "title": "Render (Solar Bird)"
    },
    "generator": "Sketchfab-11.13.0",
    "version": "2.0"
  },
  "bufferViews": [
    {
      "buffer": 0,
      "byteLength": 1293180,
      "name": "floatBufferViews",
      "target": 34963
    },
    {
      "buffer": 0,
      "byteLength": 580640,
      "byteOffset": 1293180,
      "byteStride": 8,
      "name": "floatBufferViews",
      "target": 34962
    },
    {
      "buffer": 0,
      "byteLength": 1741920,
      "byteOffset": 1873820,
      "byteStride": 12,
      "name": "floatBufferViews",
      "target": 34962
    }
  ],
  "buffers": [
    {
      "byteLength": 3615740,
      "uri": "scene.bin"
    }
  ],
  "images": [
    {
      "uri": "textures/SolarBird_Final_baseColor.jpeg"
    }
  ],
  "materials": [
    {
      "doubleSided": true,
      "name": "SolarBird_Final",
      "pbrMetallicRoughness": {
        "baseColorTexture": {
          "index": 0
        },
        "metallicFactor": 0.0
      }
    }
  ],
  "meshes": [
    {
      "name": "Object_0",
      "primitives": [
        {
          "attributes": {
            "NORMAL": 1,
            "POSITION": 0,
            "TEXCOORD_0": 2
          },
          "indices": 3,
          "material": 0,
          "mode": 4
        }
      ]
    },
    {
      "name": "Object_1",
      "primitives": [
        {
          "attributes": {
            "NORMAL": 5,
            "POSITION": 4,
            "TEXCOORD_0": 6
          },
          "indices": 7,
          "material": 0,
          "mode": 4
        }
      ]
    }
  ],
  "nodes": [
    {
      "children": [
        1
      ],
      "matrix": [
        1.0,
        0.0,
        0.0,
        0.0,
        0.0,
        2.220446049250313e-16,
        -1.0,
        0.0,
        0.0,
        1.0,
        2.220446049250313e-16,
        0.0,
        0.0,
        0.0,
        0.0,
        1.0
      ],
      "name": "Sketchfab_model"
    },
    {
      "children": [
        2,
        3
      ],
      "name": "SolarBird_Final.obj.cleaner.materialmerger.gles"
    },
    {
      "mesh": 0,
      "name": "Object_2"
    },
    {
      "mesh": 1,
      "name": "Object_3"
    }
  ],
  "samplers": [
    {
      "magFilter": 9729,
      "minFilter": 9987,
      "wrapS": 10497,
      "wrapT": 10497
    }
  ],
  "scene": 0,
  "scenes": [
    {
      "name": "Sketchfab_Scene",
      "nodes": [
        0
      ]
    }
  ],
  "textures": [
    {
      "sampler": 0,
      "source": 0
    }
  ]
}
