{
    "asset" : {
        "generator" : "Khronos glTF Blender I/O v1.6.16",
        "version" : "2.0"
    },
    "scene" : 0,
    "scenes" : [
        {
            "name" : "Scene",
            "nodes" : [
                3,
                4
            ]
        }
    ],
    "nodes" : [
        {
            "mesh" : 0,
            "name" : "Object_2",
            "scale" : [
                0.3634595274925232,
                0.26388242840766907,
                0.3634519577026367
            ],
            "translation" : [
                0.1420285701751709,
                -0.00672302907332778,
                20.215476989746094
            ]
        },
        {
            "mesh" : 1,
            "name" : "Object_3",
            "scale" : [
                0.3634595274925232,
                0.26388242840766907,
                0.3634519577026367
            ],
            "translation" : [
                0.1420285701751709,
                -0.00672302907332778,
                20.215476989746094
            ]
        },
        {
            "children" : [
                0,
                1
            ],
            "name" : "SolarBird_Final.obj.cleaner.materialmerger.gles"
        },
        {
            "children" : [
                2
            ],
            "name" : "Sketchfab_model",
            "rotation" : [
                -0.0009570170077495277,
                0.7071061730384827,
                0.7071061730384827,
                0.0009570170077495277
            ],
            "translation" : [
                0,
                -31.66536521911621,
                0
            ]
        },
        {
            "name" : "Camera",
            "rotation" : [
                0.483536034822464,
                0.33687159419059753,
                -0.20870360732078552,
                0.7804827094078064
            ],
            "scale" : [
                0.5478901863098145,
                0.5461007356643677,
                0.44109684228897095
            ],
            "translation" : [
                2.5325937271118164,
                1.861063003540039,
                1.8204008340835571
            ]
        }
    ],
    "materials" : [
        {
            "doubleSided" : true,
            "name" : "SolarBird_Final",
            "pbrMetallicRoughness" : {
                "baseColorTexture" : {
                    "index" : 0
                },
                "metallicFactor" : 0
            }
        }
    ],
    "meshes" : [
        {
            "name" : "Object_0.001",
            "primitives" : [
                {
                    "attributes" : {
                        "POSITION" : 0,
                        "NORMAL" : 1,
                        "TEXCOORD_0" : 2
                    },
                    "indices" : 3,
                    "material" : 0
                }
            ]
        },
        {
            "name" : "Object_1.001",
            "primitives" : [
                {
                    "attributes" : {
                        "POSITION" : 4,
                        "NORMAL" : 5,
                        "TEXCOORD_0" : 6
                    },
                    "indices" : 7,
                    "material" : 0
                }
            ]
        }
    ],
    "textures" : [
        {
            "sampler" : 0,
            "source" : 0
        }
    ],
    "images" : [
        {
            "mimeType" : "image/jpeg",
            "name" : "SolarBird_Final_baseColor",
            "uri" : "SolarBird_Final_baseColor.jpg"
        }
    ],
    "accessors" : [
        {
            "bufferView" : 0,
            "componentType" : 5126,
            "count" : 65932,
            "max" : [
                9.526668548583984,
                1.6880604028701782,
                45.9530143737793
            ],
            "min" : [
                -10.307638168334961,
                -1.5345531702041626,
                16.42902183532715
            ],
            "type" : "VEC3"
        },
        {
            "bufferView" : 1,
            "componentType" : 5126,
            "count" : 65932,
            "type" : "VEC3"
        },
        {
            "bufferView" : 2,
            "componentType" : 5126,
            "count" : 65932,
            "type" : "VEC2"
        },
        {
            "bufferView" : 3,
            "componentType" : 5125,
            "count" : 310302,
            "type" : "SCALAR"
        },
        {
            "bufferView" : 4,
            "componentType" : 5126,
            "count" : 7167,
            "max" : [
                9.470974922180176,
                1.6908965110778809,
                45.88848876953125
            ],
            "min" : [
                -10.251832008361816,
                -1.4748737812042236,
                16.568405151367188
            ],
            "type" : "VEC3"
        },
        {
            "bufferView" : 5,
            "componentType" : 5126,
            "count" : 7167,
            "type" : "VEC3"
        },
        {
            "bufferView" : 6,
            "componentType" : 5126,
            "count" : 7167,
            "type" : "VEC2"
        },
        {
            "bufferView" : 7,
            "componentType" : 5123,
            "count" : 12993,
            "type" : "SCALAR"
        }
    ],
    "bufferViews" : [
        {
            "buffer" : 0,
            "byteLength" : 791184,
            "byteOffset" : 0
        },
        {
            "buffer" : 0,
            "byteLength" : 791184,
            "byteOffset" : 791184
        },
        {
            "buffer" : 0,
            "byteLength" : 527456,
            "byteOffset" : 1582368
        },
        {
            "buffer" : 0,
            "byteLength" : 1241208,
            "byteOffset" : 2109824
        },
        {
            "buffer" : 0,
            "byteLength" : 86004,
            "byteOffset" : 3351032
        },
        {
            "buffer" : 0,
            "byteLength" : 86004,
            "byteOffset" : 3437036
        },
        {
            "buffer" : 0,
            "byteLength" : 57336,
            "byteOffset" : 3523040
        },
        {
            "buffer" : 0,
            "byteLength" : 25986,
            "byteOffset" : 3580376
        }
    ],
    "samplers" : [
        {
            "magFilter" : 9729,
            "minFilter" : 9987
        }
    ],
    "buffers" : [
        {
            "byteLength" : 3606364,
            "uri" : "scene5.bin"
        }
    ]
}
