{
  "accessors": [
    {
      "bufferView": 2,
      "componentType": 5126,
      "count": 62617,
      "max": [
        143.65243530273438,
        92.9117431640625,
        199.07418823242188
      ],
      "min": [
        -143.65243530273438,
        -92.9117431640625,
        -199.07418823242188
      ],
      "type": "VEC3"
    },
    {
      "bufferView": 2,
      "byteOffset": 751404,
      "componentType": 5126,
      "count": 62617,
      "max": [
        0.99999344348907471,
        1,
        0.99999713897705078
      ],
      "min": [
        -0.9999922513961792,
        -0.99999499320983887,
        -0.99999773502349854
      ],
      "type": "VEC3"
    },
    {
      "bufferView": 3,
      "componentType": 5126,
      "count": 62617,
      "max": [
        1,
        1,
        1,
        1
      ],
      "min": [
        -1,
        -1,
        -0.99999982118606567,
        -1
      ],
      "type": "VEC4"
    },
    {
      "bufferView": 1,
      "componentType": 5126,
      "count": 62617,
      "max": [
        0.99500000476837158,
        0.98379397392272949
      ],
      "min": [
        0.004999999888241291,
        0.004999995231628418
      ],
      "type": "VEC2"
    },
    {
      "bufferView": 0,
      "componentType": 5125,
      "count": 284997,
      "max": [
        62616
      ],
      "min": [
        0
      ],
      "type": "SCALAR"
    },
    {
      "bufferView": 2,
      "byteOffset": 1502808,
      "componentType": 5126,
      "count": 1602,
      "max": [
        37.103893280029297,
        15.664231300354004,
        53.137538909912109
      ],
      "min": [
        -37.103893280029297,
        -15.664231300354004,
        -53.137538909912109
      ],
      "type": "VEC3"
    },
    {
      "bufferView": 2,
      "byteOffset": 1522032,
      "componentType": 5126,
      "count": 1602,
      "max": [
        0.99774599075317383,
        0.9998859167098999,
        0.99955099821090698
      ],
      "min": [
        -0.99771732091903687,
        -0.99988865852355957,
        -0.99955141544342041
      ],
      "type": "VEC3"
    },
    {
      "bufferView": 3,
      "byteOffset": 1001872,
      "componentType": 5126,
      "count": 1602,
      "max": [
        0.99759936332702637,
        0.99977731704711914,
        0.99968278408050537,
        1
      ],
      "min": [
        -0.99760919809341431,
        -0.99977719783782959,
        -0.99968492984771729,
        1
      ],
      "type": "VEC4"
    },
    {
      "bufferView": 1,
      "byteOffset": 500936,
      "componentType": 5126,
      "count": 1602,
      "max": [
        1,
        1
      ],
      "min": [
        0,
        0
      ],
      "type": "VEC2"
    },
    {
      "bufferView": 0,
      "byteOffset": 1139988,
      "componentType": 5125,
      "count": 8496,
      "max": [
        1601
      ],
      "min": [
        0
      ],
      "type": "SCALAR"
    },
    {
      "bufferView": 2,
      "byteOffset": 1541256,
      "componentType": 5126,
      "count": 1493,
      "max": [
        35.575729370117188,
        15.567681312561035,
        53.469139099121094
      ],
      "min": [
        -35.575729370117188,
        -15.567681312561035,
        -53.469139099121094
      ],
      "type": "VEC3"
    },
    {
      "bufferView": 2,
      "byteOffset": 1559172,
      "componentType": 5126,
      "count": 1493,
      "max": [
        0.98825752735137939,
        0.99997776746749878,
        0.997822105884552
      ],
      "min": [
        -0.98825556039810181,
        -0.99997198581695557,
        -0.99782216548919678
      ],
      "type": "VEC3"
    },
    {
      "bufferView": 3,
      "byteOffset": 1027504,
      "componentType": 5126,
      "count": 1493,
      "max": [
        0.98798739910125732,
        0.99988216161727905,
        0.99773341417312622,
        1
      ],
      "min": [
        -0.98805439472198486,
        -0.99988174438476562,
        -0.9977341890335083,
        1
      ],
      "type": "VEC4"
    },
    {
      "bufferView": 1,
      "byteOffset": 513752,
      "componentType": 5126,
      "count": 1493,
      "max": [
        1,
        1
      ],
      "min": [
        0,
        0
      ],
      "type": "VEC2"
    },
    {
      "bufferView": 0,
      "byteOffset": 1173972,
      "componentType": 5125,
      "count": 7872,
      "max": [
        1492
      ],
      "min": [
        0
      ],
      "type": "SCALAR"
    }
  ],
  "asset": {
    "extras": {
      "author": "nataliedesign (https://sketchfab.com/nataliedesign)",
      "license": "CC-BY-4.0 (http://creativecommons.org/licenses/by/4.0/)",
      "source": "https://sketchfab.com/3d-models/dragon-ball-hover-car-black-8d85afecc08d43ec8c9f07003e1ccda8",
      "title": "Dragon Ball Hover Car Black"
    },
    "generator": "Sketchfab-6.3.0",
    "version": "2.0"
  },
  "bufferViews": [
    {
      "buffer": 0,
      "byteLength": 1205460,
      "byteOffset": 0,
      "name": "floatBufferViews",
      "target": 34963
    },
    {
      "buffer": 0,
      "byteLength": 525696,
      "byteOffset": 1205460,
      "byteStride": 8,
      "name": "floatBufferViews",
      "target": 34962
    },
    {
      "buffer": 0,
      "byteLength": 1577088,
      "byteOffset": 1731156,
      "byteStride": 12,
      "name": "floatBufferViews",
      "target": 34962
    },
    {
      "buffer": 0,
      "byteLength": 1051392,
      "byteOffset": 3308244,
      "byteStride": 16,
      "name": "floatBufferViews",
      "target": 34962
    }
  ],
  "buffers": [
    {
      "byteLength": 4359636,
      "uri": "scene.bin"
    }
  ],
  "images": [
    {
      "uri": "textures/default_baseColor.png"
    },
    {
      "uri": "textures/default_metallicRoughness.png"
    },
    {
      "uri": "textures/default_emissive.jpeg"
    },
    {
      "uri": "textures/default_normal.jpeg"
    }
  ],
  "materials": [
    {
      "alphaMode": "BLEND",
      "doubleSided": true,
      "emissiveFactor": [
        1,
        1,
        1
      ],
      "emissiveTexture": {
        "index": 2,
        "texCoord": 0
      },
      "name": "default",
      "normalTexture": {
        "index": 3,
        "scale": 1,
        "texCoord": 0
      },
      "pbrMetallicRoughness": {
        "baseColorFactor": [
          1,
          1,
          1,
          1
        ],
        "baseColorTexture": {
          "index": 0,
          "texCoord": 0
        },
        "metallicFactor": 1,
        "metallicRoughnessTexture": {
          "index": 1,
          "texCoord": 0
        },
        "roughnessFactor": 1
      }
    },
    {
      "doubleSided": true,
      "emissiveFactor": [
        0,
        0,
        0
      ],
      "name": "Mat.1",
      "pbrMetallicRoughness": {
        "baseColorFactor": [
          0.34000000000000002,
          0,
          0,
          1
        ],
        "metallicFactor": 0,
        "roughnessFactor": 0.95243171540000005
      }
    },
    {
      "doubleSided": true,
      "emissiveFactor": [
        0,
        0,
        0
      ],
      "name": "material",
      "pbrMetallicRoughness": {
        "baseColorFactor": [
          0.20999999999999999,
          0.20999999999999999,
          0.20999999999999999,
          1
        ],
        "metallicFactor": 0,
        "roughnessFactor": 0.95243171540000005
      }
    }
  ],
  "meshes": [
    {
      "name": "Group9366_default_0",
      "primitives": [
        {
          "attributes": {
            "NORMAL": 1,
            "POSITION": 0,
            "TANGENT": 2,
            "TEXCOORD_0": 3
          },
          "indices": 4,
          "material": 0,
          "mode": 4
        }
      ]
    },
    {
      "name": "Sweep_1_Mat.1_0",
      "primitives": [
        {
          "attributes": {
            "NORMAL": 6,
            "POSITION": 5,
            "TANGENT": 7,
            "TEXCOORD_0": 8
          },
          "indices": 9,
          "material": 1,
          "mode": 4
        }
      ]
    },
    {
      "name": "Sweep_Mat_0",
      "primitives": [
        {
          "attributes": {
            "NORMAL": 11,
            "POSITION": 10,
            "TANGENT": 12,
            "TEXCOORD_0": 13
          },
          "indices": 14,
          "material": 2,
          "mode": 4
        }
      ]
    }
  ],
  "nodes": [
    {
      "children": [
        1
      ],
      "name": "RootNode (gltf orientation matrix)",
      "rotation": [
        -0.70710678118654746,
        -0,
        -0,
        0.70710678118654757
      ]
    },
    {
      "children": [
        2
      ],
      "name": "RootNode (model correction matrix)"
    },
    {
      "children": [
        3
      ],
      "matrix": [
        1,
        0,
        0,
        0,
        0,
        0,
        1,
        0,
        0,
        -1,
        0,
        0,
        0,
        0,
        0,
        1
      ],
      "name": "102e4056c6484b74a1847daf4510febb.fbx"
    },
    {
      "children": [
        4,
        6,
        8,
        10
      ],
      "name": "RootNode"
    },
    {
      "children": [
        5
      ],
      "matrix": [
        0.48699241617963296,
        -0.26774736413427752,
        -0.83135415773463828,
        0,
        0.13533202247862125,
        0.96348915354514841,
        -0.23102790890431257,
        0,
        0.86285782738257011,
        4.163336342344337e-17,
        0.50544670314943274,
        0,
        -305.73495483398438,
        241.56544494628906,
        532.0550537109375,
        1
      ],
      "name": "CINEMA_4D_Editor"
    },
    {
      "name": ""
    },
    {
      "children": [
        7
      ],
      "matrix": [
        1,
        0,
        0,
        0,
        0,
        1,
        0,
        0,
        0,
        0,
        1,
        0,
        0,
        103.78315734863281,
        0,
        1
      ],
      "name": "Group9366"
    },
    {
      "mesh": 0,
      "name": "Group9366_default_0"
    },
    {
      "children": [
        9
      ],
      "matrix": [
        1,
        0,
        0,
        0,
        0,
        1,
        0,
        0,
        0,
        0,
        1,
        0,
        -59.372283935546875,
        122.59500885009766,
        112.26529693603516,
        1
      ],
      "name": "Sweep_1"
    },
    {
      "mesh": 1,
      "name": "Sweep_1_Mat.1_0"
    },
    {
      "children": [
        11
      ],
      "matrix": [
        1,
        0,
        0,
        0,
        0,
        1,
        0,
        0,
        0,
        0,
        1,
        0,
        -61.376678466796875,
        123.01293182373047,
        112.28559112548828,
        1
      ],
      "name": "Sweep"
    },
    {
      "mesh": 2,
      "name": "Sweep_Mat_0"
    }
  ],
  "samplers": [
    {
      "magFilter": 9729,
      "minFilter": 9987,
      "wrapS": 10497,
      "wrapT": 10497
    }
  ],
  "scene": 0,
  "scenes": [
    {
      "name": "OSG_Scene",
      "nodes": [
        0
      ]
    }
  ],
  "textures": [
    {
      "sampler": 0,
      "source": 0
    },
    {
      "sampler": 0,
      "source": 1
    },
    {
      "sampler": 0,
      "source": 2
    },
    {
      "sampler": 0,
      "source": 3
    }
  ]
}

